<svg xmlns="http://www.w3.org/2000/svg" xmlns:xlink="http://www.w3.org/1999/xlink" width="500" zoomAndPan="magnify" viewBox="0 0 375 374.999991" height="500" preserveAspectRatio="xMidYMid meet" version="1.0"><defs><clipPath id="533b25d269"><path d="M 0 1.082031 L 375 1.082031 L 375 373.917969 L 0 373.917969 Z M 0 1.082031 " clip-rule="nonzero"/></clipPath><clipPath id="4b43ac4ab1"><path d="M 17.25 1.082031 L 357.75 1.082031 C 367.277344 1.082031 375 8.804688 375 18.332031 L 375 356.667969 C 375 366.195312 367.277344 373.917969 357.75 373.917969 L 17.25 373.917969 C 7.722656 373.917969 0 366.195312 0 356.667969 L 0 18.332031 C 0 8.804688 7.722656 1.082031 17.25 1.082031 Z M 17.25 1.082031 " clip-rule="nonzero"/></clipPath><clipPath id="1f113246e6"><path d="M 0 0.0820312 L 375 0.0820312 L 375 372.917969 L 0 372.917969 Z M 0 0.0820312 " clip-rule="nonzero"/></clipPath><clipPath id="63507c4809"><path d="M 17.25 0.0820312 L 357.75 0.0820312 C 367.277344 0.0820312 375 7.804688 375 17.332031 L 375 355.667969 C 375 365.195312 367.277344 372.917969 357.75 372.917969 L 17.25 372.917969 C 7.722656 372.917969 0 365.195312 0 355.667969 L 0 17.332031 C 0 7.804688 7.722656 0.0820312 17.25 0.0820312 Z M 17.25 0.0820312 " clip-rule="nonzero"/></clipPath><clipPath id="5b7dcfa465"><rect x="0" width="375" y="0" height="373"/></clipPath><clipPath id="7ca6eaed6e"><path d="M 37.5 109 L 88 109 L 88 264.085938 L 37.5 264.085938 Z M 37.5 109 " clip-rule="nonzero"/></clipPath><clipPath id="6239978a33"><path d="M 287.90625 109.074219 L 337.492188 109.074219 L 337.492188 264.082031 L 287.90625 264.082031 Z M 287.90625 109.074219 " clip-rule="nonzero"/></clipPath><clipPath id="616a54cdd1"><path d="M 164 73.585938 L 211 73.585938 L 211 125 L 164 125 Z M 164 73.585938 " clip-rule="nonzero"/></clipPath></defs><g clip-path="url(#533b25d269)"><g clip-path="url(#4b43ac4ab1)"><g transform="matrix(1, 0, 0, 1, 0, 1)"><g clip-path="url(#5b7dcfa465)"><g clip-path="url(#1f113246e6)"><g clip-path="url(#63507c4809)"><path fill="#0e002b" d="M 0 0.0820312 L 374.292969 0.0820312 L 374.292969 372.917969 L 0 372.917969 Z M 0 0.0820312 " fill-opacity="1" fill-rule="nonzero"/></g></g></g></g></g></g><path fill="#8750f7" d="M 139.785156 160.453125 C 136.105469 160.453125 132.675781 161.148438 129.496094 162.542969 C 126.3125 163.933594 123.554688 165.808594 121.222656 168.167969 C 118.882812 170.53125 117.03125 173.300781 115.667969 176.480469 C 114.300781 179.664062 113.617188 183.042969 113.617188 186.621094 C 113.617188 190.199219 114.300781 193.578125 115.667969 196.761719 C 117.03125 199.941406 118.882812 202.710938 121.222656 205.074219 C 123.554688 207.433594 126.3125 209.3125 129.496094 210.703125 C 132.675781 212.09375 136.105469 212.789062 139.785156 212.789062 C 143.414062 212.789062 146.816406 212.09375 150 210.703125 C 153.179688 209.3125 155.949219 207.421875 158.3125 205.035156 C 160.671875 202.648438 162.535156 199.878906 163.902344 196.722656 C 165.269531 193.566406 165.953125 190.199219 165.953125 186.621094 C 165.953125 183.042969 165.269531 179.675781 163.902344 176.519531 C 162.535156 173.363281 160.671875 170.59375 158.3125 168.207031 C 155.949219 165.820312 153.179688 163.933594 150 162.542969 C 146.816406 161.148438 143.414062 160.453125 139.785156 160.453125 Z M 181.53125 186.621094 C 181.53125 198.25 177.457031 208.089844 169.308594 216.144531 C 161.054688 224.292969 151.214844 228.371094 139.785156 228.371094 C 128.253906 228.371094 118.410156 224.292969 110.261719 216.144531 C 102.109375 207.992188 98.035156 198.152344 98.035156 186.621094 C 98.035156 175.089844 102.109375 165.25 110.261719 157.097656 C 118.410156 148.949219 128.253906 144.871094 139.785156 144.871094 C 151.214844 144.871094 161.054688 148.949219 169.308594 157.097656 C 173.382812 161.175781 176.425781 165.671875 178.4375 170.59375 C 180.453125 175.511719 181.484375 180.855469 181.53125 186.621094 " fill-opacity="1" fill-rule="nonzero"/><path fill="#8750f7" d="M 235.210938 160.453125 C 231.53125 160.453125 228.101562 161.148438 224.921875 162.542969 C 221.742188 163.933594 218.980469 165.808594 216.648438 168.167969 C 214.308594 170.53125 212.457031 173.300781 211.09375 176.480469 C 209.726562 179.664062 209.042969 183.042969 209.042969 186.621094 C 209.042969 190.199219 209.726562 193.578125 211.09375 196.761719 C 212.457031 199.941406 214.308594 202.710938 216.648438 205.074219 C 218.980469 207.433594 221.742188 209.3125 224.921875 210.703125 C 228.101562 212.09375 231.53125 212.789062 235.210938 212.789062 C 238.835938 212.789062 242.242188 212.09375 245.425781 210.703125 C 248.605469 209.3125 251.375 207.421875 253.738281 205.035156 C 256.097656 202.648438 257.960938 199.878906 259.328125 196.722656 C 260.691406 193.566406 261.378906 190.199219 261.378906 186.621094 C 261.378906 183.042969 260.691406 179.675781 259.328125 176.519531 C 257.960938 173.363281 256.097656 170.59375 253.738281 168.207031 C 251.375 165.820312 248.605469 163.933594 245.425781 162.542969 C 242.242188 161.148438 238.835938 160.453125 235.210938 160.453125 Z M 276.960938 186.621094 C 276.960938 198.25 272.882812 208.089844 264.730469 216.144531 C 256.480469 224.292969 246.640625 228.371094 235.210938 228.371094 C 223.679688 228.371094 213.835938 224.292969 205.691406 216.144531 C 197.535156 207.992188 193.460938 198.152344 193.460938 186.621094 C 193.460938 175.089844 197.535156 165.25 205.691406 157.097656 C 213.835938 148.949219 223.679688 144.871094 235.210938 144.871094 C 246.640625 144.871094 256.480469 148.949219 264.730469 157.097656 C 268.808594 161.175781 271.851562 165.671875 273.863281 170.59375 C 275.878906 175.511719 276.90625 180.855469 276.960938 186.621094 " fill-opacity="1" fill-rule="nonzero"/><g clip-path="url(#7ca6eaed6e)"><path fill="#fffcfc" d="M 79.25 109.160156 C 81.484375 109.160156 83.335938 109.921875 84.800781 111.4375 C 86.269531 112.953125 87.003906 114.804688 87.003906 116.988281 C 87.003906 119.226562 86.269531 121.078125 84.800781 122.542969 C 83.335938 124.011719 81.484375 124.742188 79.25 124.742188 C 73.085938 124.742188 70.003906 127.824219 70.003906 133.988281 L 70.003906 169.621094 C 70.003906 176.78125 68.363281 182.445312 65.082031 186.621094 C 68.363281 190.796875 70.003906 196.460938 70.003906 203.617188 L 70.003906 239.253906 C 70.003906 245.417969 73.085938 248.5 79.25 248.5 C 81.484375 248.5 83.335938 249.230469 84.800781 250.699219 C 86.269531 252.164062 87.003906 254.015625 87.003906 256.253906 C 87.003906 258.488281 86.269531 260.355469 84.800781 261.84375 C 83.335938 263.335938 81.484375 264.082031 79.25 264.082031 C 62.699219 264.082031 54.421875 255.804688 54.421875 239.253906 L 54.421875 203.617188 C 54.421875 197.457031 51.367188 194.375 45.253906 194.375 C 43.015625 194.375 41.164062 193.640625 39.699219 192.175781 C 38.230469 190.710938 37.5 188.859375 37.5 186.621094 C 37.5 184.386719 38.230469 182.53125 39.699219 181.066406 C 41.164062 179.601562 43.015625 178.867188 45.253906 178.867188 C 51.367188 178.867188 54.421875 175.785156 54.421875 169.621094 L 54.421875 133.988281 C 54.421875 117.4375 62.699219 109.160156 79.25 109.160156 " fill-opacity="1" fill-rule="nonzero"/></g><g clip-path="url(#6239978a33)"><path fill="#fffcfc" d="M 320.570312 133.988281 L 320.570312 169.621094 C 320.570312 175.785156 323.628906 178.867188 329.738281 178.867188 C 331.980469 178.867188 333.828125 179.601562 335.292969 181.066406 C 336.761719 182.53125 337.492188 184.386719 337.492188 186.621094 C 337.492188 188.859375 336.761719 190.710938 335.292969 192.175781 C 333.828125 193.640625 331.980469 194.375 329.738281 194.375 C 323.628906 194.375 320.570312 197.457031 320.570312 203.617188 L 320.570312 239.253906 C 320.570312 255.804688 312.296875 264.082031 295.746094 264.082031 C 293.507812 264.082031 291.65625 263.335938 290.191406 261.84375 C 288.726562 260.355469 287.996094 258.488281 287.996094 256.253906 C 287.996094 254.015625 288.726562 252.164062 290.191406 250.699219 C 291.65625 249.230469 293.507812 248.5 295.746094 248.5 C 301.910156 248.5 304.992188 245.417969 304.992188 239.253906 L 304.992188 203.617188 C 304.992188 196.460938 306.628906 190.796875 309.910156 186.621094 C 306.628906 182.445312 304.992188 176.78125 304.992188 169.621094 L 304.992188 133.988281 C 304.992188 127.824219 301.910156 124.742188 295.746094 124.742188 C 293.507812 124.742188 291.65625 124.011719 290.191406 122.542969 C 288.726562 121.078125 287.996094 119.226562 287.996094 116.988281 C 287.996094 114.804688 288.726562 112.953125 290.191406 111.4375 C 291.65625 109.921875 293.507812 109.160156 295.746094 109.160156 C 312.296875 109.160156 320.570312 117.4375 320.570312 133.988281 " fill-opacity="1" fill-rule="nonzero"/></g><g clip-path="url(#616a54cdd1)"><path fill="#fffcfc" d="M 210.832031 115.34375 C 210.832031 116.636719 210.582031 117.839844 210.085938 118.960938 C 209.589844 120.078125 208.929688 121.058594 208.113281 121.902344 C 207.292969 122.75 206.308594 123.40625 205.164062 123.878906 C 204.019531 124.351562 202.832031 124.585938 201.585938 124.585938 C 199.300781 124.585938 197.339844 123.792969 195.699219 122.203125 C 194.058594 120.613281 192.714844 118.660156 191.671875 116.351562 C 190.628906 114.039062 189.871094 111.652344 189.398438 109.191406 C 188.925781 106.734375 188.691406 104.433594 188.691406 102.296875 C 188.691406 93.5 192.441406 84.605469 199.945312 75.605469 C 201.289062 74.265625 202.804688 73.59375 204.496094 73.59375 C 206.230469 73.59375 207.726562 74.214844 208.96875 75.457031 C 210.207031 76.699219 210.832031 78.191406 210.832031 79.933594 C 210.832031 80.777344 210.65625 81.644531 210.3125 82.539062 C 208.070312 88.007812 206.957031 93.203125 206.957031 98.121094 C 206.957031 102.792969 207.972656 107.316406 210.011719 111.691406 C 210.558594 112.933594 210.832031 114.148438 210.832031 115.34375 Z M 186.304688 115.34375 C 186.304688 116.636719 186.054688 117.839844 185.558594 118.960938 C 185.0625 120.078125 184.402344 121.058594 183.582031 121.902344 C 182.765625 122.75 181.78125 123.40625 180.640625 123.878906 C 179.496094 124.351562 178.300781 124.585938 177.0625 124.585938 C 174.773438 124.585938 172.8125 123.792969 171.171875 122.203125 C 169.53125 120.613281 168.1875 118.660156 167.144531 116.351562 C 166.101562 114.039062 165.34375 111.652344 164.871094 109.191406 C 164.398438 106.734375 164.164062 104.433594 164.164062 102.296875 C 164.164062 93.5 167.914062 84.605469 175.417969 75.605469 C 176.761719 74.265625 178.277344 73.59375 179.96875 73.59375 C 181.707031 73.59375 183.199219 74.214844 184.441406 75.457031 C 185.683594 76.699219 186.304688 78.191406 186.304688 79.933594 C 186.304688 80.777344 186.128906 81.644531 185.78125 82.539062 C 183.546875 88.007812 182.425781 93.203125 182.425781 98.121094 C 182.425781 102.792969 183.445312 107.316406 185.484375 111.691406 C 186.03125 112.933594 186.304688 114.148438 186.304688 115.34375 " fill-opacity="1" fill-rule="nonzero"/></g></svg>