<?xml version="1.0" encoding="UTF-8"?>
<svg id="Layer_1" xmlns="http://www.w3.org/2000/svg" version="1.1" viewBox="0 0 839.4 275.1">
  <!-- Generator: Adobe Illustrator 29.3.1, SVG Export Plug-In . SVG Version: 2.1.0 Build 151)  -->
  <defs>
    <style>
      .st0 {
        fill: #fff;
      }
    </style>
  </defs>
  <path class="st0" d="M31.7,64h44.2c8.4.5,17.2.9,24.9,4.5,8.3,4.3,13.6,13,14.7,22,1.2,9.2,2,19-.9,28-2.5,6.9-10.4,9.1-16.8,11,6.3,1.7,12.9,4.1,16.8,9.5,4.5,7,4.7,15.5,4.6,23.5,0,9.9.7,20.1-2.4,29.7-2,6.1-7.3,10.8-13.7,12.2-6.7,1.5-13.6,1.8-20.5,1.8H31.7V64ZM69.4,120c3.9,0,10.4.5,11.2-4.6.9-7.7,2.2-15.9-.7-23.3-1.8-3.8-6.7-3.3-10.2-3.6-.5,10.5,0,21-.2,31.5h-.1ZM69.5,142.3v39.7c3.5,0,7-.7,10.1-2.2,2.4-5.4,2.1-11.4,2.1-17.1s.4-11.5-1.4-17c-2.3-3.4-7.2-2.9-10.8-3.3h0Z"/>
  <path class="st0" d="M141.4,64h54.5c7.4,47.4,14.2,94.9,21.6,142.4-12.9,0-25.9.2-38.8-.1-.4-8.4-1.5-16.8-1.7-25.2h-13.4c-.6,8.4-1.5,16.8-2.2,25.2h-39.2c6.5-47.4,12.8-94.9,19.2-142.4h0ZM169.7,97.1c-1.8,19.5-5.3,38.8-6.6,58.3,4.2,0,8.4.1,12.6-.2-2.6-19.3-3.5-38.9-6.1-58.2h.1Z"/>
  <path class="st0" d="M221.9,64h37.8c.1,17.8-.2,35.7.2,53.5,4.9-15.9,9.6-31.8,14.5-47.6.8-1.9.7-4.3,2.1-5.9,11.8-.2,23.6,0,35.4,0-7.2,21.5-14.9,42.9-21.5,64.6,7.8,25.9,15.6,51.9,23.5,77.8h-39.2c-4.9-19.7-10-39.3-14.6-59.1-.6,19.7,0,39.4-.3,59.1h-37.8V64h0Z"/>
  <path class="st0" d="M318.2,64h62.8v28.9h-25v26.4c7.8,0,15.6-.2,23.3,0,.3,9.1,0,18.2.1,27.3h-23.4v31.4h27.5v28.3h-65.3V64h0Z"/>
  <path class="st0" d="M553.7,61.3c10.1-1.1,20.7,0,30,4.4,10.6,5.1,18.1,15.9,19,27.6,1.6,20.1.7,40.2,1,60.3-.3,7.9-.2,15.9-1.1,23.8-1.3,10.4-7.7,19.9-16.8,25-9.9,5.4-21.6,6.6-32.7,5.3-8.9-1.2-18-4.4-24.3-11-5.7-5.7-9.2-13.5-9.7-21.5-.7-10.6-1.2-21.2-.8-31.8.3-17.5-.8-35.1,1.1-52.5,1.5-10.7,8.6-20.3,18.3-25.1,5.1-2.5,10.6-3.9,16.2-4.6h-.2ZM559.2,85.3c-3.9,1.2-3.7,6-4,9.3-.4,16.1,0,32.1-.2,48.2,0,10.8-.2,21.5.2,32.3,0,2.2.2,4.4,1,6.4,1.1,2.5,4.6,3.4,6.9,2.1,1.7-.7,2.3-2.6,2.6-4.3.9-5.9.6-11.9.6-17.8v-64.8c0-3.1-.2-6.2-1.1-9.1-.9-2.3-3.9-3.2-6.1-2.3h0Z"/>
  <path class="st0" d="M419.7,64c13.3,0,26.6,0,40,0,7.8.2,15.6.5,23.1,2.6,7.7,2.2,14.3,8.1,17.2,15.5,3.2,8.6,3.4,17.9,3.1,26.9-.4,5-1.3,10.6-5.3,14.1-3.8,3.2-8.6,4.6-13.4,5.8,6,1.7,12.5,3.8,16.4,9,4.4,6,4.8,13.7,5,20.8-.2,10.5.8,21.2-2.1,31.4-1.6,6-6.4,11.2-12.5,12.8-6,1.7-12.3,1.8-18.5,2.2-17.7.4-35.4,0-53.1.2V64.1h0ZM456.9,88.2v31.2c3.5,0,8.3.7,10.5-2.7,1.5-4.1,1.3-8.5,1.4-12.8,0-4.6.4-9.8-2.5-13.6-2.6-2.2-6.3-1.8-9.4-2h0ZM456.8,141.5v39.3c3.6-.4,8.7,0,10.7-3.7,2-5.7.9-11.9,1.2-17.8-.3-5.1.8-10.6-1.6-15.2-2.6-2.6-6.9-2-10.3-2.6h0Z"/>
  <path class="st0" d="M611.2,63.9h35.8c2.2,12.7,5.4,25.2,7.5,37.9,2.8-12.6,5.1-25.3,7.9-37.9h31.1c-4.2,20.3-8.4,40.6-12.7,60.9-.3,1.2,0,2.4.2,3.5,6.4,25.6,12.7,51.3,19.1,76.9h-34.4c-4.7-16.6-8.5-33.6-11-50.7-2.1,16.9-4.9,33.8-7.5,50.7h-36.1c4.2-24.9,8.5-49.7,12.7-74.6.2-1.7.8-3.3.6-5-4.4-20.6-8.9-41.1-13.2-61.7h0Z"/>
  <path class="st0" d="M696.4,63.9h35.8c2.2,12.7,5.4,25.2,7.5,37.9,2.8-12.6,5.1-25.3,7.9-37.9h31.1c-4.2,20.3-8.4,40.6-12.7,60.9-.3,1.2,0,2.4.2,3.5,6.4,25.6,12.7,51.3,19.1,76.9h-34.4c-4.7-16.6-8.5-33.6-11-50.7-2.1,16.9-4.9,33.8-7.5,50.7h-36.1c4.2-24.9,8.5-49.7,12.7-74.6.2-1.7.8-3.3.6-5-4.4-20.6-8.9-41.1-13.2-61.7h0Z"/>
  <path class="st0" d="M805.2,230h-415.1V44h415.1v186ZM395.1,225h405.2V49h-405.2v176h0Z"/>
</svg>