<svg version="1.2" xmlns="http://www.w3.org/2000/svg" viewBox="0 0 812 370" width="812" height="370"><style>tspan{white-space:pre}.a{fill:#fff}.b{font-size: 117px;fill: #ffffff;font-weight: bold;font-family: "Eras IT C"}</style><path class="a" d="m7.2 38.1h44.2c8.4 0.5 17.2 0.9 24.9 4.5 8.3 4.3 13.6 13 14.7 22 1.2 9.2 2 19-0.9 28-2.5 6.9-10.4 9.1-16.8 11 6.3 1.7 12.9 4.1 16.8 9.5 4.5 7 4.7 15.5 4.6 23.5 0 9.9 0.7 20.1-2.4 29.7-2 6.1-7.3 10.8-13.7 12.2-6.7 1.5-13.6 1.8-20.5 1.8h-50.9zm37.7 56c3.9 0 10.4 0.5 11.2-4.6 0.9-7.7 2.2-15.9-0.7-23.3-1.8-3.8-6.7-3.3-10.2-3.6-0.5 10.5 0 21-0.2 31.5zm0.1 22.3v39.7c3.5 0 7-0.7 10.1-2.2 2.4-5.4 2.1-11.4 2.1-17.1 0-5.7 0.4-11.5-1.4-17-2.3-3.4-7.2-2.9-10.8-3.3z"/><path class="a" d="m116.9 38.1h54.5c7.4 47.4 14.2 94.9 21.6 142.4-12.9 0-25.9 0.2-38.8-0.1-0.4-8.4-1.5-16.8-1.7-25.2h-13.4c-0.6 8.4-1.5 16.8-2.2 25.2h-39.2c6.5-47.4 12.8-94.9 19.2-142.4zm28.3 33.1c-1.8 19.5-5.3 38.8-6.6 58.3 4.2 0 8.4 0.1 12.6-0.2-2.6-19.3-3.5-38.9-6.1-58.2h0.1z"/><path class="a" d="m197.4 38.1h37.8c0.1 17.8-0.2 35.7 0.2 53.5 4.9-15.9 9.6-31.8 14.5-47.6 0.8-1.9 0.7-4.3 2.1-5.9 11.8-0.2 23.6 0 35.4 0-7.2 21.5-14.9 42.9-21.5 64.6 7.8 25.9 15.6 51.9 23.5 77.8h-39.2c-4.9-19.7-10-39.3-14.6-59.1-0.6 19.7 0 39.4-0.3 59.1h-37.8v-142.4z"/><path class="a" d="m293.7 38.1h62.8v28.9h-25v26.4c7.8 0 15.6-0.2 23.3 0 0.3 9.1 0 18.2 0.1 27.3h-23.4v31.4h27.5v28.3h-65.3z"/><path class="a" d="m529.3 35.4c10.1-1.1 20.7 0 30 4.4 10.6 5.1 18.1 15.9 19 27.6 1.6 20.1 0.7 40.2 1 60.3-0.3 7.9-0.2 15.9-1.1 23.8-1.3 10.4-7.7 19.9-16.8 25-9.9 5.4-21.6 6.6-32.7 5.3-8.9-1.2-18-4.4-24.3-11-5.7-5.7-9.2-13.5-9.7-21.5-0.7-10.6-1.2-21.2-0.8-31.8 0.3-17.5-0.8-35.1 1.1-52.5 1.5-10.7 8.6-20.3 18.3-25.1 5.1-2.5 10.6-3.9 16.2-4.6h-0.2zm5.5 24c-3.9 1.2-3.7 6-4 9.3-0.4 16.1 0 32.1-0.2 48.2 0 10.8-0.2 21.5 0.2 32.3 0 2.2 0.2 4.4 1 6.4 1.1 2.5 4.6 3.4 6.9 2.1 1.7-0.7 2.3-2.6 2.6-4.3 0.9-5.9 0.6-11.9 0.6-17.8v-64.8c0-3.1-0.2-6.2-1.1-9.1-0.9-2.3-3.9-3.2-6.1-2.3z"/><path class="a" d="m395.3 38.1h40c7.8 0.2 15.6 0.5 23.1 2.6 7.7 2.2 14.3 8.1 17.2 15.5 3.2 8.6 3.4 17.9 3.1 26.9-0.4 5-1.3 10.6-5.3 14.1-3.8 3.2-8.6 4.6-13.4 5.8 6 1.7 12.5 3.8 16.4 9 4.4 6 4.8 13.7 5 20.8-0.2 10.5 0.8 21.2-2.1 31.4-1.6 6-6.4 11.2-12.5 12.8-6 1.7-12.3 1.8-18.5 2.2-17.7 0.4-35.4 0-53.1 0.2v-141.2zm37.1 24.2v31.2c3.5 0 8.3 0.7 10.5-2.7 1.5-4.1 1.3-8.5 1.4-12.8 0-4.6 0.4-9.8-2.5-13.6-2.6-2.2-6.3-1.8-9.4-2zm-0.1 53.3v39.3c3.6-0.4 8.7 0 10.7-3.7 2-5.7 0.9-11.9 1.2-17.8-0.3-5.1 0.8-10.6-1.6-15.2-2.6-2.6-6.9-2-10.3-2.6z"/><path class="a" d="m586.8 38h35.8c2.2 12.7 5.4 25.2 7.5 37.9 2.8-12.6 5.1-25.3 7.9-37.9h31.1c-4.2 20.3-8.4 40.6-12.7 60.9-0.3 1.2 0 2.4 0.2 3.5 6.4 25.6 12.7 51.3 19.1 76.9h-34.4c-4.7-16.6-8.5-33.6-11-50.7-2.1 16.9-4.9 33.8-7.5 50.7h-36.1c4.2-24.9 8.5-49.7 12.7-74.6 0.2-1.7 0.8-3.3 0.6-5-4.4-20.6-8.9-41.1-13.2-61.7z"/><path class="a" d="m671.9 38h35.8c2.2 12.7 5.4 25.2 7.5 37.9 2.8-12.6 5.1-25.3 7.9-37.9h31.1c-4.2 20.3-8.4 40.6-12.7 60.9-0.3 1.2 0 2.4 0.2 3.5 6.4 25.6 12.7 51.3 19.1 76.9h-34.4c-4.7-16.6-8.5-33.6-11-50.7-2.1 16.9-4.9 33.8-7.5 50.7h-36.1c4.2-24.9 8.5-49.7 12.7-74.6 0.2-1.7 0.8-3.3 0.6-5-4.4-20.6-8.9-41.1-13.2-61.7z"/><path class="a" d="m780.8 204.1h-415.1v-186h415.1zm-410.2-5h405.2v-176h-405.2z"/><text style="transform:matrix(1,0,0,1,7.2,307.1)" ><tspan x="0" y="0" class="b">WHOLESALE
</tspan></text></svg>